<svg width="94" height="26" viewBox="0 0 94 26" fill="none" xmlns="http://www.w3.org/2000/svg">
<path id="Vector 21" d="M12.6498 11.3449C27.1256 11.3449 41.5784 11.9444 56.0427 12.022C57.1996 12.0283 59.211 12.3825 60.3507 11.9844C61.7364 11.5004 57.6305 10.8583 56.1994 10.5174C47.4538 8.43357 38.5446 7.0292 29.6271 5.83402C24.5315 5.15108 21.3012 4.80607 16.4878 4.38576C13.798 4.15088 13.9027 4.2379 15.9395 4.76193C22.3012 6.39867 28.7558 7.61984 35.2666 8.56127C35.912 8.65459 45.7501 9.76978 39.6725 9.01267C28.4188 7.61077 17.1748 6.14794 5.91372 4.79955C4.76138 4.66157 1.35285 4.62384 2.46735 4.31052C5.52435 3.45111 11.6374 4.24961 14.4513 4.31052C20.0682 4.43211 23.6183 4.56271 29.1963 4.95002C32.5462 5.18262 36.951 5.19733 40.2991 6.11615C41.1541 6.3508 38.5252 6.26168 37.636 6.26662C32.1405 6.29713 26.6437 6.26662 21.1482 6.26662C17.273 6.26662 13.392 6.22009 9.51674 6.26662C9.28142 6.26944 8.70655 6.10205 8.8118 6.30424C8.92987 6.53105 9.33219 6.39357 9.59506 6.41709C10.6643 6.51274 11.7353 6.58876 12.8065 6.6616C23.9536 7.41962 35.1072 7.968 46.1736 9.53931C46.8678 9.63789 47.5606 9.74776 48.2492 9.87787C48.6017 9.94447 47.5303 9.94328 47.1722 9.91549C43.6218 9.63991 40.1048 9.10558 36.5786 8.6365C27.9558 7.48945 19.3069 6.49091 10.6133 6.0033C1.3462 5.48352 29.047 8.13387 38.243 9.35123C39.6234 9.53396 43.5153 10.049 45.4295 10.3857C46.794 10.6257 42.6577 10.2437 41.2782 10.1036C32.1438 9.17558 23.0425 7.89795 13.8834 7.20705C13.6757 7.19137 10.6868 6.98135 9.73214 6.98135C7.44205 6.98135 14.2934 7.38788 16.5661 7.65845C23.3159 8.46206 30.8779 8.74775 37.4402 10.5926C37.7821 10.6887 36.7386 10.7263 36.3828 10.7431C32.4256 10.929 28.4573 10.9598 24.4967 10.9876C19.8299 11.0203 15.1627 11.0064 10.4958 11.0064C10.0598 11.0064 5.3161 11.0064 10.8287 11.0064C19.9362 11.0064 29.0691 10.9726 38.1451 11.7963C38.7287 11.8493 40.474 12.022 39.8879 12.022C37.1007 12.022 34.3136 12.022 31.5265 12.022C24.5097 12.022 17.493 12.022 10.4762 12.022C5.7037 12.022 20.0257 12.061 24.7904 12.323C30.0541 12.6124 35.624 12.8485 40.7886 14.0158C41.4305 14.1608 39.4703 14.0534 38.8109 14.0534C35.2539 14.0534 31.6954 14.0811 28.1389 14.0158C28.1086 14.0152 18.22 13.733 18.5243 12.9625C18.8181 12.2184 21.9989 11.915 22.1861 11.8904C25.7847 11.4179 29.4288 11.3796 33.0539 11.3449C34.0329 11.3356 36.9702 11.3449 35.9911 11.3449C33.8437 11.3449 31.6962 11.3449 29.5488 11.3449C25.4954 11.3449 21.4419 11.3569 17.3886 11.3449C16.9861 11.3438 13.6005 11.6249 12.9044 11.1569C12.8656 11.1308 16.5042 10.6091 16.7619 10.5926C20.2795 10.3674 17.9929 10.3063 15.8808 10.3481C13.9684 10.386 8.32212 11.0036 10.1434 10.4421C15.1522 8.89782 20.7142 8.70539 25.9262 8.6365C29.4335 8.59014 28.002 8.6365 25.3583 8.6365C18.2246 8.6365 11.089 8.58593 3.95555 8.6365C3.19662 8.64188 0.968038 8.54532 1.68408 8.78697C5.38264 10.0352 10.0996 10.3637 13.8639 11.1192C19.6355 12.2776 25.4486 13.4437 31.1349 14.9562C33.9074 15.6937 33.8776 16.0452 30.8999 15.9719C23.4083 15.7873 15.9519 14.6389 8.53766 13.6772C7.63568 13.5602 6.61585 13.7508 5.83539 13.301C5.73023 13.2404 6.04901 13.178 6.16828 13.1506C7.90344 12.752 10.2752 12.6161 11.8274 12.5111C30.8624 11.2226 50.0015 11.9659 68.9666 13.8277C74.1097 14.3326 89.2844 16.9512 84.3969 15.3324C77.3587 13.0012 69.0046 12.7681 61.6822 11.9468C57.123 11.4355 52.5581 10.9974 47.9751 10.7431C47.444 10.7136 45.8722 10.6949 46.389 10.5738C52.4686 9.1495 58.7374 8.5417 64.9719 8.1851C67.8855 8.01845 70.8067 7.95939 73.7249 7.95939C73.9403 7.95939 74.1557 7.95939 74.3711 7.95939C74.9586 7.95939 73.1962 7.95939 72.6088 7.95939C63.8623 7.95939 55.1159 7.95939 46.3694 7.95939C44.5866 7.95939 39.526 7.95939 38.6346 7.95939C37.7603 7.95939 35.2358 8.0091 36.0303 7.65845C37.234 7.12721 40.4773 6.81498 41.1607 6.75564C49.4957 6.03194 57.9233 6.0033 66.2839 6.0033C71.9109 6.0033 77.5673 6.04178 83.1829 6.4547C83.4912 6.47738 83.8044 6.49101 84.1032 6.56756C84.7466 6.73236 82.7718 6.60517 82.1059 6.60517C76.8593 6.60517 71.5852 6.45152 66.3427 6.68041C65.9631 6.69698 65.5837 6.72684 65.2069 6.77445C64.4337 6.87218 65.0802 6.90611 65.3244 6.90611C67.5136 6.90611 69.7156 6.7261 71.9039 6.68041C75.8781 6.59742 87.8042 6.60517 83.8291 6.60517C73.8881 6.60517 63.9472 6.60517 54.0062 6.60517C51.7278 6.60517 51.3229 6.56725 53.3405 6.68041C59.6465 7.03411 65.9211 7.54262 72.178 8.4108C76.805 9.05283 81.5518 9.89548 86.1201 10.8935C87.8734 11.2766 93.003 12.4597 91.2113 12.6051C83.2285 13.2531 74.7188 11.8867 66.7735 11.2321C64.2992 11.0282 61.8046 10.8995 59.3324 10.6678C59.1744 10.653 58.9081 10.7387 58.8625 10.5926C58.6954 10.0575 60.0053 10.3657 60.5857 10.3293C67.4912 9.89535 74.6342 10.1822 81.4988 10.9876C82.4308 11.0969 84.9042 10.9706 84.2403 11.6083C84.1383 11.7062 83.9537 11.6459 83.8095 11.6459C82.7006 11.6459 80.961 11.5019 80.0302 11.4202C73.3801 10.8359 66.7387 9.93346 60.1549 8.8622C59.4512 8.7477 58.061 8.5998 59.6262 8.26033C62.0627 7.73187 64.6015 7.57363 67.0868 7.43275C68.7554 7.33816 70.4645 7.30015 72.1388 7.28228C72.6544 7.27678 74.2014 7.28228 73.6858 7.28228C68.8476 7.28228 63.9596 7.36917 59.1366 6.94373C53.1973 6.41981 63.5287 5.48184 63.8166 5.45785C65.4336 5.3231 70.9892 4.26109 72.8046 4.98763C73.1134 5.1112 72.1399 5.06385 71.8059 5.08168C69.6599 5.19619 67.5589 5.21397 65.4027 5.19453C60.4511 5.14987 54.8254 5.41619 49.9724 4.23529C49.751 4.18142 49.3511 4.11365 49.385 3.89673C49.5653 2.74182 51.72 3.19104 52.9292 3.06916C60.3339 2.3228 67.8746 2.47638 75.3111 2.54252C76.6 2.55398 77.4831 2.6411 75.3502 2.89988C71.7575 3.33578 68.1176 3.41178 64.502 3.48295C59.5096 3.58121 44.5286 3.55818 49.522 3.55818C52.8174 3.55818 56.1288 3.94071 59.3324 4.6867C59.7241 4.77789 60.826 5.10939 60.429 5.17572C57.8882 5.60016 54.6125 5.25369 52.1264 5.17572C44.2141 4.92756 35.6087 4.72267 27.8647 2.9375C27.3503 2.8189 28.9218 2.88107 29.4508 2.88107C33.8347 2.88107 38.2012 3.01934 42.5706 3.40771C48.897 3.97003 55.1757 4.86035 61.3885 6.13496C61.9407 6.24825 65.4038 6.74119 66.3427 7.28228C66.7568 7.52098 65.3766 7.28707 64.8936 7.28228C60.5898 7.23967 56.2887 7.09505 51.9893 6.90611C47.1109 6.69173 42.232 6.42792 37.3618 6.07853C36.9305 6.04759 36.495 6.04001 36.0694 5.96568C35.0339 5.78483 38.1765 6.01928 39.2221 6.13496C52.0717 7.55659 64.7955 11.1254 77.0734 14.9186C77.4946 15.0487 83.2749 16.9004 84.6319 17.5894C86.1152 18.3424 81.2955 18.0842 79.619 18.022C67.291 17.5648 55.0783 16.2049 42.8055 15.1067C40.2982 14.8823 37.8028 14.7305 35.2862 14.7305C34.529 14.7305 36.8008 14.7083 37.5576 14.7305C44.5177 14.9346 51.2371 16.3482 58.04 17.6458C59.1442 17.8564 62.4377 18.1878 61.3298 18.3794C58.3612 18.8926 53.7051 18.2973 50.9907 18.1725C40.5837 17.6938 30.2361 16.6265 19.8558 15.8214C17.7846 15.6607 24.0116 15.9426 26.0828 16.1035C35.0312 16.7989 43.9073 18.0091 52.753 19.4703C55.5784 19.937 63.9769 21.4523 67.3609 22.1787C71.557 23.0794 70.0489 23.3182 66.7539 23.2132C56.2816 22.8795 45.886 21.1255 35.5212 19.7712C33.4406 19.4993 26.4751 18.546 33.3476 18.3605C46.091 18.0167 58.8233 20.0172 71.3556 21.9906C72.7558 22.2111 73.1663 22.2548 71.1989 22.0658C65.3271 21.5018 59.4871 20.6977 53.6538 19.8464C45.0049 18.5843 36.384 17.1498 27.7277 15.9342C24.4183 15.4695 20.6199 15.3617 17.3102 14.6553C16.6952 14.524 18.5603 14.4848 19.1901 14.4672C24.7613 14.3109 30.3635 14.3427 35.9324 14.5048C44.4493 14.7527 69.9076 16.5743 61.3885 16.743C50.1851 16.9649 38.9105 16.502 27.7277 15.8966C26.1467 15.811 24.5648 15.7256 22.9889 15.5769C22.3044 15.5123 21.1319 15.8949 20.9524 15.2571C20.7888 14.6755 22.1696 14.9475 22.7931 14.881C27.5051 14.3781 33.677 14.2498 38.1255 14.2038C52.6762 14.0536 67.2454 14.6296 81.7338 15.9342C84.3081 16.166 81.36 16.0847 81.0681 16.0847C76.2249 16.0847 71.3816 16.0785 66.5385 16.0847C56.4108 16.0976 46.1013 15.7137 36.0107 16.743C30.5698 17.298 38.3687 17.5471 39.0459 17.627C53.4792 19.3313 67.865 21.4097 82.243 23.4953C83.3657 23.6582 84.4921 23.799 85.611 23.9843C87.1868 24.2453 85.2822 24.207 84.8669 24.21C79.6878 24.2483 74.4946 24.1428 69.3191 23.9843C61.0599 23.7314 52.6812 23.5456 44.4504 22.7806C44.1751 22.755 43.6671 22.7829 43.6671 22.5172C43.6671 21.4993 45.4595 21.3564 46.4869 21.1066C56.1468 18.7576 66.6232 18.8917 76.5251 18.7931C76.6776 18.7916 83.3952 18.8884 77.0342 18.7555C70.7519 18.6243 64.4737 18.3957 58.1967 18.116C56.3967 18.0359 49.7664 17.7097 47.466 17.5894C46.6825 17.5484 45.8987 17.5127 45.1162 17.4577C43.7941 17.3648 44.0617 17.3273 45.4295 17.2696C55.466 16.8468 66.3119 16.507 76.2314 18.2477C78.0308 18.5635 77.4427 18.6745 75.9964 18.7179C69.8566 18.9022 63.5906 18.4048 57.4918 17.8527C45.1751 16.7379 32.8954 15.027 20.5999 13.7148C12.6298 12.8642 36.6022 14.9355 44.5287 16.1035C48.1239 16.6333 51.4541 17.1872 54.9657 17.9656C57.6899 18.5694 57.4283 18.752 55.142 18.7931C47.2905 18.9344 39.4365 18.942 31.5852 19.1317C30.3746 19.161 27.4211 18.3546 27.9626 19.395C28.0246 19.514 28.2356 19.445 28.3739 19.4514C29.5802 19.508 30.7896 19.48 31.9965 19.5267C35.8977 19.6776 47.5682 20.6408 43.6671 20.4859C32.3 20.0347 21.0075 17.6876 9.67339 16.7242C7.84992 16.5692 2.35993 16.4233 4.19053 16.4233C6.19222 16.4233 8.36962 16.8053 10.3 17.1004C17.4046 18.1863 24.4836 19.475 31.5265 20.8809C33.3753 21.25 37.8768 22.123 40.1424 22.8558C40.4525 22.9561 41.1989 23.0549 41.004 23.3072C40.742 23.6464 40.1317 23.431 39.692 23.4389C38.7195 23.4562 37.7461 23.4245 36.7744 23.3824C30.2402 23.0994 23.8111 22.1445 17.3102 21.5768C12.9976 21.2002 18.3656 21.2509 19.4642 21.2383C28.2141 21.1377 36.9391 21.62 45.6645 22.1787C57.0956 22.9107 0.113292 21.5462 11.3966 19.6395C19.9731 18.1903 29.1234 18.8334 37.7926 18.7931C39.0882 18.7871 42.8361 19.0719 41.6698 18.5298C39.8906 17.7029 37.7807 17.3257 35.9128 16.7618" stroke="#0C3958" stroke-width="3" stroke-linecap="round"/>
</svg>
